<?xml version="1.0" encoding="utf-8" standalone="yes"?>
<svg xmlns="http://www.w3.org/2000/svg" xmlns:xlink="http://www.w3.org/1999/xlink" version="1.1" width="111" height="15">
	<defs>
		<clipPath id="clip005">
			<path d="M0,0 L110.6667,0 L110.6667,14.66667 L0,14.66667 Z" clip-rule="evenodd" />
		</clipPath>
		<clipPath id="clip006">
			<path d="M0,0 L0,0 L0,15.48718 L110.5084,15.48718 L110.5084,0 Z" clip-rule="evenodd" />
		</clipPath>
	</defs>
	<g transform="translate(0.1666667,0)">
		<g>
			<g>
				<g clip-path="url(#clip005)">
					<g clip-path="url(#clip006)">
						<path d="M9.548879,4.307692 L9.548879,4.307692 L11.14036,4.307692 L8.65367,10.97436 L7.161659,10.97436 L5.570179,6.666667 L4.078167,10.97436 L2.586154,10.97436 L0.09946748,4.307692 L1.790415,4.307692 L3.381894,8.923078 L5.072842,4.307692 L6.266451,4.307692 L7.857931,8.923078 L9.548879,4.307692 Z" fill="#1b1b31" fill-rule="nonzero" />
						<path d="M20.88817,4.307692 L20.88817,4.307692 L22.47965,4.307692 L19.99296,10.97436 L18.50095,10.97436 L16.90947,6.666667 L15.41746,10.97436 L13.92545,10.97436 L11.43876,4.307692 L13.12971,4.307692 L14.72119,8.923078 L16.41213,4.307692 L17.60575,4.307692 L19.29669,8.923078 L20.88817,4.307692 Z" fill="#1b1b31" fill-rule="nonzero" />
						<path d="M32.22746,4.307692 L32.22746,4.307692 L33.81894,4.307692 L31.33226,10.97436 L29.84024,10.97436 L28.24877,6.666667 L26.75675,10.97436 L25.36421,10.97436 L22.77805,4.307692 L24.469,4.307692 L26.06048,8.923078 L27.75143,4.307692 L28.94504,4.307692 L30.63599,8.923078 L32.22746,4.307692 Z" fill="#1b1b31" fill-rule="nonzero" />
						<path d="M34.21682,9.02564 L34.21682,9.02564 L36.1067,9.02564 L36.1067,10.97436 L34.21682,10.97436 L34.21682,9.02564 Z" fill="#1b1b31" fill-rule="nonzero" />
						<path d="M41.37847,4.102564 L41.37847,4.102564 L41.37847,4.102564 C42.17421,4.102564 42.77102,4.307692 43.16889,4.820512 L43.16889,4.820512 C43.56676,5.230769 43.66623,5.948718 43.66623,6.871795 L43.66623,6.871795 L43.66623,10.97436 L42.07474,10.97436 L42.07474,6.97436 L42.07474,6.97436 C42.07474,6.461539 41.97528,6.051281 41.77634,5.846154 L41.77634,5.846154 C41.5774,5.538461 41.27901,5.435897 40.88113,5.435897 L40.88113,5.435897 C40.3838,5.435897 39.98593,5.641026 39.68752,5.948718 L39.68752,5.948718 C39.48859,6.25641 39.28965,6.666667 39.28965,7.179487 L39.28965,7.179487 L39.28965,10.97436 L37.69818,10.97436 L37.69818,4.307692 L39.28965,4.307692 L39.28965,5.230769 L39.28965,5.230769 C39.48859,4.923077 39.78699,4.615385 40.18486,4.410256 L40.18486,4.410256 C40.48326,4.205128 40.9806,4.102564 41.37847,4.102564 L41.37847,4.102564 L41.37847,4.102564 Z" fill="#1b1b31" fill-rule="nonzero" />
						<path d="M51.32522,4.307692 L51.32522,4.307692 L51.32522,10.97436 L49.73374,10.97436 L49.73374,9.948718 L49.73374,9.948718 C49.53481,10.25641 49.2364,10.5641 48.938,10.76923 L48.938,10.76923 C48.54013,10.97436 48.14226,11.07692 47.74439,11.07692 L47.74439,11.07692 C46.15291,11.07692 45.35717,10.15385 45.35717,8.307693 L45.35717,8.307693 L45.35717,4.307692 L47.04811,4.307692 L47.04811,8.307693 L47.04811,8.307693 C47.04811,8.820512 47.14759,9.128205 47.34652,9.333334 L47.34652,9.333334 C47.44599,9.538462 47.74439,9.74359 48.14226,9.74359 L48.14226,9.74359 C48.6396,9.74359 49.03746,9.538462 49.2364,9.230769 L49.2364,9.230769 C49.53481,8.923078 49.73374,8.51282 49.73374,8 L49.73374,8 L49.73374,4.307692 L51.32522,4.307692 Z" fill="#1b1b31" fill-rule="nonzero" />
						<path d="M55.50285,11.07692 L55.50285,11.07692 L55.50285,11.07692 C54.90605,11.07692 54.40872,10.97436 53.91138,10.87179 L53.91138,10.87179 C53.41404,10.66667 53.01617,10.46154 52.6183,10.15385 L52.6183,10.15385 L53.11563,9.02564 L53.11563,9.02564 C53.8119,9.538462 54.60765,9.74359 55.50285,9.74359 L55.50285,9.74359 C55.90073,9.74359 56.19912,9.74359 56.39806,9.641025 L56.39806,9.641025 C56.597,9.435897 56.69647,9.333334 56.69647,9.02564 L56.69647,9.02564 C56.69647,8.820512 56.597,8.717949 56.49753,8.615384 L56.49753,8.615384 C56.2986,8.51282 56.09966,8.410256 55.70179,8.307693 L55.70179,8.307693 L54.70712,8 L54.70712,8 C54.11031,7.897436 53.61297,7.692308 53.31457,7.384615 L53.31457,7.384615 C53.01617,7.076923 52.9167,6.666667 52.9167,6.153846 L52.9167,6.153846 C52.9167,5.743589 53.01617,5.435897 53.2151,5.128205 L53.2151,5.128205 C53.41404,4.820512 53.8119,4.51282 54.20978,4.410256 L54.20978,4.410256 C54.60765,4.205128 55.00551,4.102564 55.60233,4.102564 L55.60233,4.102564 C56.00019,4.102564 56.49753,4.205128 56.8954,4.307692 L56.8954,4.307692 C57.29327,4.51282 57.69114,4.717948 57.98954,4.923077 L57.98954,4.923077 L57.59167,6.051281 L57.59167,6.051281 C56.8954,5.641026 56.19912,5.333333 55.50285,5.333333 L55.50285,5.333333 C55.20445,5.333333 54.90605,5.435897 54.70712,5.538461 L54.70712,5.538461 C54.50818,5.641026 54.40872,5.846154 54.40872,6.153846 L54.40872,6.153846 C54.40872,6.25641 54.50818,6.461539 54.60765,6.564103 L54.60765,6.564103 C54.70712,6.666667 54.90605,6.769231 55.20445,6.871795 L55.20445,6.871795 L56.2986,7.076923 L56.2986,7.076923 C56.99487,7.282052 57.39274,7.48718 57.69114,7.794872 L57.69114,7.794872 C57.98954,8.102565 58.18848,8.51282 58.18848,9.02564 L58.18848,9.02564 C58.18848,9.641025 57.89008,10.15385 57.49221,10.46154 L57.49221,10.46154 C56.99487,10.87179 56.2986,11.07692 55.50285,11.07692 L55.50285,11.07692 L55.50285,11.07692 Z" fill="#1b1b31" fill-rule="nonzero" />
						<path d="M62.26665,4.102564 L62.26665,4.102564 L62.26665,4.102564 C63.16185,4.102564 63.85812,4.307692 64.35546,4.820512 L64.35546,4.820512 C64.75333,5.230769 64.95227,5.948718 64.95227,6.871795 L64.95227,6.871795 L64.95227,10.97436 L63.46025,10.97436 L63.46025,9.948718 L63.46025,9.948718 C63.26132,10.25641 63.06238,10.5641 62.66452,10.76923 L62.66452,10.76923 C62.36611,10.97436 61.96824,11.07692 61.57037,11.07692 L61.57037,11.07692 C61.1725,11.07692 60.77463,10.97436 60.37676,10.76923 L60.37676,10.76923 C60.07837,10.5641 59.77996,10.35897 59.58102,10.05128 L59.58102,10.05128 C59.38209,9.74359 59.28262,9.333334 59.28262,8.923078 L59.28262,8.923078 C59.28262,8.51282 59.38209,8.102565 59.68048,7.794872 L59.68048,7.794872 C59.87943,7.48718 60.2773,7.282052 60.77463,7.179487 L60.77463,7.179487 C61.37143,7.076923 62.16718,6.97436 63.06238,6.97436 L63.06238,6.97436 L63.46025,6.97436 L63.46025,6.666667 L63.46025,6.666667 C63.46025,6.25641 63.36078,5.948718 63.16185,5.743589 L63.16185,5.743589 C62.96292,5.538461 62.66452,5.435897 62.16718,5.435897 L62.16718,5.435897 C61.86877,5.435897 61.47091,5.435897 61.07303,5.538461 L61.07303,5.538461 C60.77463,5.743589 60.37676,5.846154 59.97889,6.051281 L59.97889,6.051281 L59.58102,4.923077 L59.58102,4.923077 C59.87943,4.717948 60.37676,4.51282 60.8741,4.307692 L60.8741,4.307692 C61.37143,4.205128 61.86877,4.102564 62.26665,4.102564 L62.26665,4.102564 L62.26665,4.102564 ZM61.86877,9.846153 L61.86877,9.846153 L61.86877,9.846153 C62.36611,9.846153 62.76398,9.641025 62.96292,9.333334 L62.96292,9.333334 C63.26132,9.02564 63.46025,8.615384 63.46025,8.205128 L63.46025,8.205128 L63.46025,7.897436 L63.16185,7.897436 L63.16185,7.897436 C62.56505,7.897436 62.16718,7.897436 61.7693,8 L61.7693,8 C61.47091,8 61.27197,8.102565 61.07303,8.307693 L61.07303,8.307693 C60.97357,8.410256 60.8741,8.615384 60.8741,8.820512 L60.8741,8.820512 C60.8741,9.128205 60.97357,9.333334 61.1725,9.538462 L61.1725,9.538462 C61.37143,9.74359 61.57037,9.846153 61.86877,9.846153 L61.86877,9.846153 L61.86877,9.846153 Z" fill="#1b1b31" fill-rule="nonzero" />
						<path d="M74.40168,4.102564 L74.40168,4.102564 L74.40168,4.102564 C75.09795,4.102564 75.69476,4.307692 75.99316,4.820512 L75.99316,4.820512 C76.39103,5.230769 76.58996,5.948718 76.58996,6.871795 L76.58996,6.871795 L76.58996,10.97436 L74.89901,10.97436 L74.89901,6.871795 L74.89901,6.871795 C74.89901,6.358974 74.79955,6.051281 74.60062,5.846154 L74.60062,5.846154 C74.50114,5.538461 74.20274,5.435897 73.80487,5.435897 L73.80487,5.435897 C73.407,5.435897 73.00913,5.641026 72.8102,5.948718 L72.8102,5.948718 C72.61127,6.25641 72.41232,6.666667 72.41232,7.179487 L72.41232,7.179487 L72.41232,10.97436 L70.82085,10.97436 L70.82085,6.871795 L70.82085,6.871795 C70.82085,6.358974 70.72137,6.051281 70.52245,5.846154 L70.52245,5.846154 C70.42298,5.538461 70.12458,5.435897 69.7267,5.435897 L69.7267,5.435897 C69.32883,5.435897 68.93096,5.641026 68.73203,5.948718 L68.73203,5.948718 C68.43363,6.25641 68.33416,6.666667 68.33416,7.179487 L68.33416,7.179487 L68.33416,10.97436 L66.64321,10.97436 L66.64321,4.307692 L68.33416,4.307692 L68.33416,5.230769 L68.33416,5.230769 C68.5331,4.820512 68.73203,4.615385 69.12991,4.410256 L69.12991,4.410256 C69.42831,4.205128 69.82618,4.102564 70.32351,4.102564 L70.32351,4.102564 C71.21872,4.102564 71.91499,4.51282 72.21339,5.333333 L72.21339,5.333333 C72.41232,4.923077 72.71072,4.615385 73.1086,4.410256 L73.1086,4.410256 C73.50646,4.205128 73.90434,4.102564 74.40168,4.102564 L74.40168,4.102564 L74.40168,4.102564 Z" fill="#1b1b31" fill-rule="nonzero" />
						<path d="M83.95055,7.897436 L83.95055,7.897436 L79.57399,7.897436 L79.57399,7.897436 C79.57399,8.51282 79.77293,9.02564 80.07132,9.333334 L80.07132,9.333334 C80.36972,9.538462 80.86707,9.74359 81.3644,9.74359 L81.3644,9.74359 C82.16013,9.74359 82.75694,9.538462 83.35375,9.02564 L83.35375,9.02564 L83.85108,10.15385 L83.85108,10.15385 C83.55268,10.46154 83.15481,10.66667 82.65748,10.76923 L82.65748,10.76923 C82.25961,10.97436 81.76227,11.07692 81.3644,11.07692 L81.3644,11.07692 C80.27026,11.07692 79.47453,10.76923 78.77825,10.15385 L78.77825,10.15385 C78.18144,9.538462 77.88303,8.615384 77.88303,7.589744 L77.88303,7.589744 C77.88303,6.871795 78.08198,6.25641 78.28091,5.743589 L78.28091,5.743589 C78.57931,5.230769 78.97718,4.820512 79.37505,4.51282 L79.37505,4.51282 C79.87239,4.205128 80.4692,4.102564 81.06599,4.102564 L81.06599,4.102564 C81.9612,4.102564 82.65748,4.410256 83.15481,5.025641 L83.15481,5.025641 C83.65215,5.538461 83.95055,6.358974 83.95055,7.384615 L83.95055,7.384615 L83.95055,7.897436 ZM81.06599,5.333333 L81.06599,5.333333 L81.06599,5.333333 C80.66813,5.333333 80.27026,5.435897 80.07132,5.743589 L80.07132,5.743589 C79.77293,6.051281 79.57399,6.461539 79.57399,6.97436 L79.57399,6.97436 L82.55801,6.97436 L82.55801,6.97436 C82.45854,6.461539 82.35908,6.051281 82.16013,5.743589 L82.16013,5.743589 C81.86174,5.435897 81.56334,5.333333 81.06599,5.333333 L81.06599,5.333333 L81.06599,5.333333 Z" fill="#1b1b31" fill-rule="nonzero" />
						<path d="M88.52606,9.74359 L88.52606,9.74359 L88.52606,9.74359 C88.725,9.74359 88.92393,9.74359 89.12286,9.74359 L89.12286,9.74359 L89.0234,10.97436 L89.0234,10.97436 C88.82446,10.97436 88.52606,11.07692 88.32712,11.07692 L88.32712,11.07692 C87.43192,11.07692 86.73565,10.76923 86.33778,10.35897 L86.33778,10.35897 C85.84043,9.948718 85.64151,9.333334 85.64151,8.410256 L85.64151,8.410256 L85.64151,5.538461 L84.44789,5.538461 L84.44789,4.307692 L85.64151,4.307692 L85.64151,2.25641 L87.33245,2.25641 L87.33245,4.307692 L89.0234,4.307692 L89.0234,5.538461 L87.33245,5.538461 L87.33245,8.410256 L87.33245,8.410256 C87.33245,9.333334 87.73032,9.74359 88.52606,9.74359 L88.52606,9.74359 L88.52606,9.74359 Z" fill="#1b1b31" fill-rule="nonzero" />
						<path d="M92.90263,4.102564 L92.90263,4.102564 L92.90263,4.102564 C93.79783,4.102564 94.49411,4.307692 94.89198,4.820512 L94.89198,4.820512 C95.38932,5.230769 95.58825,5.948718 95.58825,6.871795 L95.58825,6.871795 L95.58825,10.97436 L93.99677,10.97436 L93.99677,9.948718 L93.99677,9.948718 C93.79783,10.25641 93.59891,10.5641 93.30051,10.76923 L93.30051,10.76923 C93.0021,10.97436 92.60423,11.07692 92.20635,11.07692 L92.20635,11.07692 C91.70901,11.07692 91.31116,10.97436 91.01275,10.76923 L91.01275,10.76923 C90.61488,10.5641 90.31647,10.35897 90.11753,10.05128 L90.11753,10.05128 C89.91861,9.74359 89.81915,9.333334 89.81915,8.923078 L89.81915,8.923078 C89.81915,8.51282 90.01807,8.102565 90.21701,7.794872 L90.21701,7.794872 C90.41593,7.48718 90.81381,7.282052 91.41061,7.179487 L91.41061,7.179487 C91.90796,7.076923 92.7037,6.97436 93.69837,6.97436 L93.69837,6.97436 L93.99677,6.97436 L93.99677,6.666667 L93.99677,6.666667 C93.99677,6.25641 93.8973,5.948718 93.69837,5.743589 L93.69837,5.743589 C93.49943,5.538461 93.20103,5.435897 92.80316,5.435897 L92.80316,5.435897 C92.40528,5.435897 92.10688,5.435897 91.70901,5.538461 L91.70901,5.538461 C91.31116,5.743589 90.91328,5.846154 90.61488,6.051281 L90.61488,6.051281 L90.11753,4.923077 L90.11753,4.923077 C90.51541,4.717948 90.91328,4.51282 91.41061,4.307692 L91.41061,4.307692 C91.90796,4.205128 92.40528,4.102564 92.90263,4.102564 L92.90263,4.102564 L92.90263,4.102564 ZM92.50476,9.846153 L92.50476,9.846153 L92.50476,9.846153 C92.90263,9.846153 93.30051,9.641025 93.59891,9.333334 L93.59891,9.333334 C93.8973,9.02564 93.99677,8.615384 93.99677,8.205128 L93.99677,8.205128 L93.99677,7.897436 L93.79783,7.897436 L93.79783,7.897436 C93.20103,7.897436 92.7037,7.897436 92.40528,8 L92.40528,8 C92.00742,8 91.80848,8.102565 91.70901,8.307693 L91.70901,8.307693 C91.51008,8.410256 91.51008,8.615384 91.51008,8.820512 L91.51008,8.820512 C91.51008,9.128205 91.60956,9.333334 91.70901,9.538462 L91.70901,9.538462 C91.90796,9.74359 92.20635,9.846153 92.50476,9.846153 L92.50476,9.846153 L92.50476,9.846153 Z" fill="#1b1b31" fill-rule="nonzero" />
						<path d="M97.08027,9.02564 L97.08027,9.02564 L98.97015,9.02564 L98.97015,10.97436 L97.08027,10.97436 L97.08027,9.02564 Z" fill="#1b1b31" fill-rule="nonzero" />
						<path d="M100.5616,10.97436 L100.5616,10.97436 L100.5616,4.307692 L102.2526,4.307692 L102.2526,10.97436 L100.5616,10.97436 ZM100.4622,1.128205 L100.4622,1.128205 L102.2526,1.128205 L102.2526,2.871795 L100.4622,2.871795 L100.4622,1.128205 Z" fill="#1b1b31" fill-rule="nonzero" />
						<path d="M106.8281,11.07692 L106.8281,11.07692 L106.8281,11.07692 C106.2313,11.07692 105.6345,10.87179 105.1371,10.66667 L105.1371,10.66667 C104.6398,10.35897 104.2419,9.948718 103.9435,9.435897 L103.9435,9.435897 C103.7446,8.923078 103.5457,8.307693 103.5457,7.589744 L103.5457,7.589744 C103.5457,6.871795 103.7446,6.25641 103.9435,5.743589 L103.9435,5.743589 C104.2419,5.230769 104.6398,4.820512 105.1371,4.51282 L105.1371,4.51282 C105.6345,4.205128 106.2313,4.102564 106.8281,4.102564 L106.8281,4.102564 C107.5244,4.102564 108.1212,4.205128 108.6185,4.51282 L108.6185,4.51282 C109.1158,4.820512 109.5137,5.230769 109.8121,5.743589 L109.8121,5.743589 C110.011,6.25641 110.21,6.871795 110.21,7.589744 L110.21,7.589744 C110.21,8.307693 110.011,8.923078 109.8121,9.435897 L109.8121,9.435897 C109.5137,9.948718 109.1158,10.35897 108.6185,10.66667 L108.6185,10.66667 C108.1212,10.87179 107.5244,11.07692 106.8281,11.07692 L106.8281,11.07692 L106.8281,11.07692 ZM106.8281,9.74359 L106.8281,9.74359 L106.8281,9.74359 C107.4249,9.74359 107.8228,9.538462 108.1212,9.128205 L108.1212,9.128205 C108.4196,8.820512 108.519,8.307693 108.519,7.589744 L108.519,7.589744 C108.519,6.871795 108.4196,6.358974 108.1212,5.948718 L108.1212,5.948718 C107.8228,5.641026 107.4249,5.435897 106.8281,5.435897 L106.8281,5.435897 C106.3307,5.435897 105.9329,5.641026 105.6345,5.948718 L105.6345,5.948718 C105.3361,6.358974 105.2366,6.871795 105.2366,7.589744 L105.2366,7.589744 C105.2366,8.307693 105.3361,8.820512 105.6345,9.128205 L105.6345,9.128205 C105.9329,9.538462 106.3307,9.74359 106.8281,9.74359 L106.8281,9.74359 L106.8281,9.74359 Z" fill="#1b1b31" fill-rule="nonzero" />
					</g>
				</g>
			</g>
		</g>
	</g>
</svg>